<svg id="Group_17" data-name="Group 17" xmlns="http://www.w3.org/2000/svg" width="50.681" height="50.681" viewBox="0 0 50.681 50.681">
  <g id="Group_12" data-name="Group 12" transform="translate(0)">
    <g id="Group_11" data-name="Group 11">
      <path id="Path_14" data-name="Path 14" d="M50.019.66,50.012.654A2.27,2.27,0,0,0,48.425,0h0a2.252,2.252,0,0,0-1.4.493c-5.39,4.3-10.8,8.748-16.079,13.207q-1.926,1.626-3.853,3.275L12.429,2.317a3.717,3.717,0,0,0-5.25,0L.218,9.279a.742.742,0,0,0,1.05,1.05L6.129,5.467,7.192,6.529,2.33,11.391a.742.742,0,0,0,1.05,1.05L8.242,7.579,9.3,8.642,4.442,13.5a.742.742,0,0,0,1.05,1.05l4.862-4.862,1.062,1.062L6.555,15.616a.742.742,0,0,0,1.05,1.05L12.466,11.8l1.062,1.062L8.667,17.728a.742.742,0,0,0,1.05,1.05l4.862-4.862,1.062,1.062L10.779,19.84a.742.742,0,0,0,1.05,1.05l4.862-4.862,1.062,1.062-4.862,4.862A.742.742,0,0,0,13.941,23L18.8,18.141,19.865,19.2,15,24.065a.742.742,0,0,0,1.05,1.05l4.862-4.862,1.1,1.1q-3.419,2.978-6.79,5.982s0,0,0,0c-.666.592-1.393,1.275-2.109,1.921a.747.747,0,0,0-.138,1.094h0a4.961,4.961,0,0,1-.337,6.629L10.4,39.22a5.192,5.192,0,1,1,.321-6.892.744.744,0,0,0,1.075.083l.011-.01.007-.006a.743.743,0,0,0-.065-1.154,6.671,6.671,0,0,0-5.066-2.324h-.01A6.678,6.678,0,1,0,8.722,41.953a6.681,6.681,0,0,0,6.355,8.728h.008a6.679,6.679,0,0,0,4.775-11.348l1.516-1.723q4.012-4.464,7.934-8.963l1.119,1.119-4.862,4.862a.742.742,0,0,0,1.05,1.05l4.862-4.862,1.062,1.062-4.862,4.862a.742.742,0,0,0,1.05,1.05l4.862-4.862,1.062,1.062-4.862,4.862a.742.742,0,0,0,1.05,1.05L35.7,35.04,36.765,36.1,31.9,40.964a.742.742,0,0,0,1.05,1.05l4.862-4.862,1.062,1.062-4.862,4.862a.742.742,0,0,0,1.05,1.05l4.862-4.862,1.062,1.062-4.862,4.862a.742.742,0,0,0,1.05,1.05l4.862-4.862L43.1,42.439,38.24,47.3a.742.742,0,0,0,1.05,1.05l4.862-4.862,1.062,1.062-4.862,4.862a.742.742,0,0,0,1.05,1.05l5.386-5.386h0L48.364,43.5a3.712,3.712,0,0,0,0-5.25L33.69,23.579c5.692-6.64,11.21-13.3,16.5-19.917A2.252,2.252,0,0,0,50.019.66ZM7.179,4.417l1.05-1.05a2.23,2.23,0,0,1,3.15,0L25.956,17.945q-1.411,1.212-2.818,2.432ZM47.314,39.3a2.227,2.227,0,0,1,0,3.15l-1.05,1.05L30.286,27.524q1.222-1.407,2.434-2.815Zm-26.63-3.146a2.838,2.838,0,0,1-1.479-2.107.743.743,0,0,0-1.475.174h0a4.047,4.047,0,0,0,1.8,2.935c.052.035.1.07.159.11-.515.587-.94,1.082-1.427,1.62a.744.744,0,0,0,.083,1.075A5.2,5.2,0,1,1,9.885,44a5.307,5.307,0,0,1,1.6-3.769l2.2-2.2a6.447,6.447,0,0,0,1.883-4.567,6.348,6.348,0,0,0-1.034-3.493c.581-.532,1.087-1,1.674-1.526l0,0c16.1-14.352,31.539-26.69,31.829-26.856-.2.2-29.165,29.152-29.3,29.3a.743.743,0,1,0,1.111.986c.089-.1,29.025-29.027,29.238-29.239C49.034,2.741,37.078,17.885,20.684,36.156Z" transform="translate(0)" fill="#e80101"/>
    </g>
  </g>
  <g id="Group_14" data-name="Group 14" transform="translate(2.97 31.88)">
    <g id="Group_13" data-name="Group 13">
      <path id="Path_15" data-name="Path 15" d="M36.343,323.153a3.709,3.709,0,1,0,0,5.249A3.717,3.717,0,0,0,36.343,323.153Zm-1.05,4.2a2.226,2.226,0,1,1-1.575-3.8A2.23,2.23,0,0,1,35.293,327.351Z" transform="translate(-30.006 -322.063)" fill="#e80101"/>
    </g>
  </g>
  <g id="Group_16" data-name="Group 16" transform="translate(11.365 40.292)">
    <g id="Group_15" data-name="Group 15">
      <path id="Path_16" data-name="Path 16" d="M118.534,407.051a3.714,3.714,0,0,0-.031,7.428,3.773,3.773,0,0,0,1.445-.292,3.654,3.654,0,0,0,2.3-3.424A3.716,3.716,0,0,0,118.534,407.051Zm.847,5.764a2.223,2.223,0,1,1-.847-4.279,2.229,2.229,0,0,1,2.227,2.226A2.2,2.2,0,0,1,119.381,412.815Z" transform="translate(-114.818 -407.051)" fill="#e80101"/>
    </g>
  </g>
</svg>
