<svg id="Group_27" data-name="Group 27" xmlns="http://www.w3.org/2000/svg" width="64.144" height="47.607" viewBox="0 0 64.144 47.607">
  <g id="Group_20" data-name="Group 20" transform="translate(3.383 40.207)">
    <g id="Group_19" data-name="Group 19">
      <path id="Path_17" data-name="Path 17" d="M28.253,425.938A1.253,1.253,0,0,0,27,427.191v.018a1.253,1.253,0,1,0,2.506,0v-.018A1.253,1.253,0,0,0,28.253,425.938Z" transform="translate(-27 -425.938)" fill="#e80101"/>
    </g>
  </g>
  <g id="Group_22" data-name="Group 22" transform="translate(15.254 9.812)">
    <g id="Group_21" data-name="Group 21">
      <path id="Path_18" data-name="Path 18" d="M123.828,183.607a1.253,1.253,0,0,0-1.764.168l-.02.024a1.253,1.253,0,1,0,1.931,1.6l.02-.024A1.253,1.253,0,0,0,123.828,183.607Z" transform="translate(-121.757 -183.32)" fill="#e80101"/>
    </g>
  </g>
  <g id="Group_24" data-name="Group 24" transform="translate(0 0)">
    <g id="Group_23" data-name="Group 23">
      <path id="Path_19" data-name="Path 19" d="M54.11,107.223a9.946,9.946,0,0,0-6.379,2.342,9.945,9.945,0,0,0-6.379-2.342A10.159,10.159,0,0,0,31.32,117.481a10.692,10.692,0,0,0,1.263,4.556h-7.5l2.958-6.392a8.212,8.212,0,0,0-1.21-8.765L25.6,105.438a1.253,1.253,0,0,0-1.917.016l-4.77,5.766a1.253,1.253,0,1,0,1.93,1.6l3.821-4.618.266.311a5.7,5.7,0,0,1,.84,6.084l-3.781,8.171a1.253,1.253,0,0,0,1.137,1.779H45.1a2.224,2.224,0,0,1,2.221,2.221v.067a2.224,2.224,0,0,1-2.221,2.221H28.994a1.253,1.253,0,0,0,0,2.506h9.324a2.212,2.212,0,0,1,1.539.623l.23.26a2.207,2.207,0,0,1,.453,1.338v.067a2.224,2.224,0,0,1-2.221,2.221H28.994a1.253,1.253,0,0,0,0,2.506h9.324A2.224,2.224,0,0,1,40.54,140.8v.067a2.224,2.224,0,0,1-2.221,2.221H28.994a1.253,1.253,0,1,0,0,2.506h5.074a2.224,2.224,0,0,1,2.221,2.222v.067a2.224,2.224,0,0,1-2.221,2.221H15.938a13.409,13.409,0,0,1-4.915-.929l-1.752-.687V126.8l5.092-6.155a1.253,1.253,0,1,0-1.93-1.6l-3.4,4.114a1.25,1.25,0,0,0-1.011-.515H1.253A1.253,1.253,0,0,0,0,123.9v27.455a1.253,1.253,0,0,0,1.253,1.253H8.018a1.253,1.253,0,0,0,1.253-1.253v-.178l.837.328a15.9,15.9,0,0,0,5.83,1.1h18.13a4.732,4.732,0,0,0,4.727-4.727v-.067a4.7,4.7,0,0,0-.556-2.221h.079a4.732,4.732,0,0,0,4.727-4.727V140.8a4.715,4.715,0,0,0-1.526-3.474,4.74,4.74,0,0,0,1.271-1.948c2.264,2.369,3.981,3.968,4.089,4.069a1.253,1.253,0,0,0,1.7,0c.1-.089,2.377-2.212,5.193-5.242a1.253,1.253,0,0,0-1.835-1.706c-1.74,1.872-3.3,3.413-4.21,4.3-1.06-1.026-2.985-2.937-5.07-5.234H45.1a4.732,4.732,0,0,0,4.727-4.727v-.067a4.732,4.732,0,0,0-4.727-4.727H35.411a9.925,9.925,0,0,1-1.585-4.556,7.652,7.652,0,0,1,7.528-7.753,7.359,7.359,0,0,1,5.458,2.414,1.253,1.253,0,0,0,1.842,0,7.36,7.36,0,0,1,5.458-2.414,7.652,7.652,0,0,1,7.528,7.753c0,1.209-.622,3.52-3.584,7.667a1.253,1.253,0,1,0,2.039,1.457c2.726-3.816,4.051-6.8,4.051-9.123A10.159,10.159,0,0,0,54.11,107.223ZM6.765,150.1H2.506V125.151h4.26Z" transform="translate(0 -104.999)" fill="#e80101"/>
    </g>
  </g>
  <g id="Group_26" data-name="Group 26" transform="translate(54.526 23.741)">
    <g id="Group_25" data-name="Group 25">
      <path id="Path_20" data-name="Path 20" d="M437.362,294.8a1.253,1.253,0,0,0-1.766.145l-.064.076a1.253,1.253,0,1,0,1.911,1.62l.064-.076A1.253,1.253,0,0,0,437.362,294.8Z" transform="translate(-435.234 -294.505)" fill="#e80101"/>
    </g>
  </g>
</svg>
