<svg id="Group_28" data-name="Group 28" xmlns="http://www.w3.org/2000/svg" width="52.928" height="45.705" viewBox="0 0 52.928 45.705">
  <path id="Path_21" data-name="Path 21" d="M51.119,34.936H1.809A1.811,1.811,0,0,0,0,36.745v6.367a.776.776,0,0,0,1.551,0V36.745a.259.259,0,0,1,.258-.258h49.31a.259.259,0,0,1,.258.258V74.554a.259.259,0,0,1-.258.258H41.184V73.2h7.8a.775.775,0,0,0,.775-.775V64.3a.776.776,0,0,0-1.551,0v7.344H41.184v-3.44l.075.007a2.372,2.372,0,0,0,2-.429,2.381,2.381,0,0,0,.428-2,1.176,1.176,0,0,1,.536-1.322c1.368-1.137,1.393-2.355,0-3.513a1.177,1.177,0,0,1-.536-1.322c.152-1.734-.658-2.584-2.426-2.429a1.17,1.17,0,0,1-1.317-.536c-1.135-1.371-2.354-1.4-3.51,0a1.17,1.17,0,0,1-1.317.536c-1.736-.152-2.581.662-2.426,2.429a1.177,1.177,0,0,1-.536,1.322c-1.368,1.137-1.393,2.355,0,3.513a1.177,1.177,0,0,1,.536,1.322c-.163,1.858.724,2.576,2.5,2.422v3.44H4.722v-32H48.206V60.169a.776.776,0,0,0,1.551,0V38.875a.775.775,0,0,0-.775-.775H3.947a.775.775,0,0,0-.775.775V72.423a.775.775,0,0,0,.775.775H35.188v1.613H1.809a.259.259,0,0,1-.258-.258V47.041a.776.776,0,0,0-1.551,0V74.554a1.811,1.811,0,0,0,1.809,1.809H35.188v3.51a.775.775,0,0,0,1.1.7l1.9-.882,1.9.882a.791.791,0,0,0,1.1-.7v-3.51h9.936a1.811,1.811,0,0,0,1.809-1.809V36.745a1.811,1.811,0,0,0-1.809-1.809ZM34.978,66.67c-.776.068-.814.027-.746-.749a2.675,2.675,0,0,0-1.089-2.65c-.629-.523-.629-.6,0-1.128a2.675,2.675,0,0,0,1.089-2.65c-.068-.776-.03-.817.746-.749a2.667,2.667,0,0,0,2.647-1.092c.521-.629.6-.629,1.122,0a2.668,2.668,0,0,0,2.647,1.092c.776-.068.814-.027.746.749a2.675,2.675,0,0,0,1.089,2.65c.629.523.629.6,0,1.128a2.674,2.674,0,0,0-1.089,2.649c.068.776.03.817-.746.749a3.24,3.24,0,0,0-1.526.111,3.093,3.093,0,0,0-1.122.981,2.867,2.867,0,0,1-.561.574,2.87,2.87,0,0,1-.561-.574A3.093,3.093,0,0,0,36.5,66.78a3.4,3.4,0,0,0-1.525-.111Zm3.535,11.466a.775.775,0,0,0-.654,0l-1.12.521V69.11a1.733,1.733,0,0,0,2.895,0v9.547Z" transform="translate(0 -34.936)" fill="#e80101"/>
  <path id="Path_22" data-name="Path 22" d="M90.741,129.872h26.727a.776.776,0,0,0,0-1.551H90.741A.776.776,0,0,0,90.741,129.872Z" transform="translate(-80.687 -118.667)" fill="#e80101"/>
  <path id="Path_23" data-name="Path 23" d="M124.336,174.714a.775.775,0,0,0-.775-.775H90.742a.776.776,0,0,0,0,1.551h32.819A.775.775,0,0,0,124.336,174.714Z" transform="translate(-80.687 -159.569)" fill="#e80101"/>
  <path id="Path_24" data-name="Path 24" d="M110.164,220.331a.775.775,0,0,0-.775-.775H90.742a.776.776,0,0,0,0,1.551h18.646A.775.775,0,0,0,110.164,220.331Z" transform="translate(-80.687 -200.471)" fill="#e80101"/>
  <path id="Path_25" data-name="Path 25" d="M102.573,273.319l-1.268,0c-.813,0-1.261-.216-1.427-1.079-.152-.787-1.287-.687-1.5,0-.092.3-.557,1.175-.964,1.1-.215-.038-.309-.37-.389-.542a6.611,6.611,0,0,1-.365-1.045c-.408-1.5-.49-3.071-.745-4.6-.148-.888-1.5-.637-1.523.206a23.725,23.725,0,0,1-1.464,7.849c-.355.934,1.144,1.338,1.5.412a21.919,21.919,0,0,0,.888-2.972,7.861,7.861,0,0,0,.444,1.078,1.845,1.845,0,0,0,2.364,1.026,2.646,2.646,0,0,0,.948-.693c.734.846,1.825.808,2.843.806q2.3,0,4.6-.01a.776.776,0,0,0,0-1.551l-3.948.009Z" transform="translate(-83.278 -242.651)" fill="#e80101"/>
  <path id="Path_26" data-name="Path 26" d="M343.122,280.343a3.028,3.028,0,1,0-3.028-3.028A3.032,3.032,0,0,0,343.122,280.343Zm0-4.506a1.478,1.478,0,1,1-1.478,1.478A1.479,1.479,0,0,1,343.122,275.837Z" transform="translate(-304.937 -249.543)" fill="#e80101"/>
</svg>
