<svg id="Group_101" data-name="Group 101" xmlns="http://www.w3.org/2000/svg" width="14.464" height="12.889" viewBox="0 0 14.464 12.889">
  <g id="Group_80" data-name="Group 80">
    <g id="Group_79" data-name="Group 79">
      <path id="Path_46" data-name="Path 46" d="M1013.151-239.9h-.908v-.72a.378.378,0,0,0-.377-.377.378.378,0,0,0-.377.377v.72H1007.8v-.72a.378.378,0,0,0-.377-.377.378.378,0,0,0-.377.377v.72h-3.73v-.72a.378.378,0,0,0-.377-.377.378.378,0,0,0-.377.377v.72h-.87a1.525,1.525,0,0,0-1.5,1.526v8.76a1.5,1.5,0,0,0,1.5,1.507h11.458a1.5,1.5,0,0,0,1.5-1.5v-8.764A1.519,1.519,0,0,0,1013.151-239.9Zm.75,10.286a.752.752,0,0,1-.746.753h-11.465a.749.749,0,0,1-.75-.75v-8.764a.767.767,0,0,1,.75-.772h.87v.546a.378.378,0,0,0,.377.377.378.378,0,0,0,.377-.377v-.546h3.73v.546a.378.378,0,0,0,.377.377.378.378,0,0,0,.377-.377v-.546h3.692v.546a.378.378,0,0,0,.377.377.378.378,0,0,0,.377-.377v-.546h.908a.767.767,0,0,1,.75.772Z" transform="translate(-1000.186 241)"/>
    </g>
  </g>
  <g id="Group_82" data-name="Group 82" transform="translate(5.162 4.277)">
    <g id="Group_81" data-name="Group 81" transform="translate(0 0)">
      <path id="Path_47" data-name="Path 47" d="M1023.08-223.023h-.712a.408.408,0,0,0-.407.407.408.408,0,0,0,.407.407h.712a.408.408,0,0,0,.407-.407A.408.408,0,0,0,1023.08-223.023Z" transform="translate(-1021.961 223.023)"/>
    </g>
  </g>
  <g id="Group_84" data-name="Group 84" transform="translate(7.761 4.277)">
    <g id="Group_83" data-name="Group 83" transform="translate(0 0)">
      <path id="Path_48" data-name="Path 48" d="M1034.046-223.023h-.712a.408.408,0,0,0-.407.407.408.408,0,0,0,.407.407h.712a.408.408,0,0,0,.407-.407A.406.406,0,0,0,1034.046-223.023Z" transform="translate(-1032.926 223.023)"/>
    </g>
  </g>
  <g id="Group_86" data-name="Group 86" transform="translate(10.383 4.277)">
    <g id="Group_85" data-name="Group 85" transform="translate(0 0)">
      <path id="Path_49" data-name="Path 49" d="M1045.107-223.023h-.712a.408.408,0,0,0-.407.407.408.408,0,0,0,.407.407h.712a.408.408,0,0,0,.407-.407A.408.408,0,0,0,1045.107-223.023Z" transform="translate(-1043.987 223.023)"/>
    </g>
  </g>
  <g id="Group_88" data-name="Group 88" transform="translate(5.162 6.864)">
    <g id="Group_87" data-name="Group 87" transform="translate(0 0)">
      <path id="Path_50" data-name="Path 50" d="M1023.08-212.151h-.712a.408.408,0,0,0-.407.407.408.408,0,0,0,.407.407h.712a.408.408,0,0,0,.407-.407A.408.408,0,0,0,1023.08-212.151Z" transform="translate(-1021.961 212.151)"/>
    </g>
  </g>
  <g id="Group_90" data-name="Group 90" transform="translate(2.54 6.864)">
    <g id="Group_89" data-name="Group 89" transform="translate(0 0)">
      <path id="Path_51" data-name="Path 51" d="M1012.024-212.151h-.716a.408.408,0,0,0-.407.407.408.408,0,0,0,.407.407h.712a.408.408,0,0,0,.407-.407A.4.4,0,0,0,1012.024-212.151Z" transform="translate(-1010.9 212.151)"/>
    </g>
  </g>
  <g id="Group_92" data-name="Group 92" transform="translate(7.761 6.864)">
    <g id="Group_91" data-name="Group 91" transform="translate(0 0)">
      <path id="Path_52" data-name="Path 52" d="M1034.046-212.151h-.712a.408.408,0,0,0-.407.407.408.408,0,0,0,.407.407h.712a.408.408,0,0,0,.407-.407A.406.406,0,0,0,1034.046-212.151Z" transform="translate(-1032.926 212.151)"/>
    </g>
  </g>
  <g id="Group_94" data-name="Group 94" transform="translate(10.383 6.864)">
    <g id="Group_93" data-name="Group 93" transform="translate(0 0)">
      <path id="Path_53" data-name="Path 53" d="M1045.107-212.151h-.712a.408.408,0,0,0-.407.407.408.408,0,0,0,.407.407h.712a.408.408,0,0,0,.407-.407A.408.408,0,0,0,1045.107-212.151Z" transform="translate(-1043.987 212.151)"/>
    </g>
  </g>
  <g id="Group_96" data-name="Group 96" transform="translate(5.162 9.413)">
    <g id="Group_95" data-name="Group 95" transform="translate(0 0)">
      <path id="Path_54" data-name="Path 54" d="M1023.08-201.438h-.712a.408.408,0,0,0-.407.407.408.408,0,0,0,.407.407h.712a.408.408,0,0,0,.407-.407A.408.408,0,0,0,1023.08-201.438Z" transform="translate(-1021.961 201.438)"/>
    </g>
  </g>
  <g id="Group_98" data-name="Group 98" transform="translate(2.54 9.413)">
    <g id="Group_97" data-name="Group 97" transform="translate(0 0)">
      <path id="Path_55" data-name="Path 55" d="M1012.024-201.438h-.716a.408.408,0,0,0-.407.407.408.408,0,0,0,.407.407h.712a.408.408,0,0,0,.407-.407A.4.4,0,0,0,1012.024-201.438Z" transform="translate(-1010.9 201.438)"/>
    </g>
  </g>
  <g id="Group_100" data-name="Group 100" transform="translate(7.761 9.413)">
    <g id="Group_99" data-name="Group 99" transform="translate(0 0)">
      <path id="Path_56" data-name="Path 56" d="M1034.046-201.438h-.712a.408.408,0,0,0-.407.407.408.408,0,0,0,.407.407h.712a.408.408,0,0,0,.407-.407A.406.406,0,0,0,1034.046-201.438Z" transform="translate(-1032.926 201.438)"/>
    </g>
  </g>
</svg>
