<svg version="1.1" id="Layer_1" xmlns="http://www.w3.org/2000/svg" xmlns:xlink="http://www.w3.org/1999/xlink" x="0px" y="0px"
	 width="391.4px" height="489px" viewBox="0 0 391.4 489" enable-background="new 0 0 391.4 489" xml:space="preserve">
<path fill="#FFFFFF" d="M391.3,422.7l-28-315.3c-0.6-7-6.5-12.3-13.4-12.3h-57.6C291.5,42.5,248.5,0,195.7,0
	C142.9,0,99.9,42.5,99.1,95.1H41.5c-7,0-12.8,5.3-13.4,12.3l-28,315.3c0,0.399-0.1,0.8-0.1,1.2C0,459.8,32.9,489,73.4,489H318
	c40.5,0,73.399-29.2,73.399-65.1C391.399,423.5,391.399,423.1,391.3,422.7 M195.7,27c37.9,0,68.8,30.4,69.6,68.1H126.1
	C126.9,57.4,157.8,27,195.7,27 M318,462H73.4c-25.4,0-46-16.8-46.4-37.5l26.8-302.3H99v41c0,7.5,6,13.5,13.5,13.5s13.5-6,13.5-13.5
	v-41h139.3v41c0,7.5,6,13.5,13.5,13.5s13.5-6,13.5-13.5v-41h45.2l26.899,302.3C364,445.2,343.3,462,318,462"/>
</svg>
