<svg id="Group_108" data-name="Group 108" xmlns="http://www.w3.org/2000/svg" width="14.778" height="14.366" viewBox="0 0 14.778 14.366">
  <g id="Group_103" data-name="Group 103" transform="translate(0 0)">
    <g id="Group_102" data-name="Group 102">
      <path id="Path_57" data-name="Path 57" d="M40.62,45.366a.808.808,0,0,1-.627-.3l-2.4-2.918H31.368A2.648,2.648,0,0,1,28.724,39.5V33.644A2.647,2.647,0,0,1,31.368,31h9.489A2.647,2.647,0,0,1,43.5,33.644V39.5a2.649,2.649,0,0,1-2.182,2.6l.125,2.394a.808.808,0,0,1-.522.807A.838.838,0,0,1,40.62,45.366Zm-.055-.819h0Zm-9.2-12.666a1.765,1.765,0,0,0-1.763,1.763V39.5a1.765,1.765,0,0,0,1.763,1.763H37.8a.441.441,0,0,1,.34.16l2.416,2.934-.138-2.631a.441.441,0,0,1,.44-.464A1.765,1.765,0,0,0,42.62,39.5V33.644a1.765,1.765,0,0,0-1.763-1.763Z" transform="translate(-28.724 -31)"/>
    </g>
  </g>
  <g id="Group_105" data-name="Group 105" transform="translate(2.904 4.044)">
    <g id="Group_104" data-name="Group 104" transform="translate(0 0)">
      <path id="Path_58" data-name="Path 58" d="M45.843,43.7H37.651a.441.441,0,1,1,0-.881h8.192a.441.441,0,0,1,0,.881Z" transform="translate(-37.21 -42.819)"/>
    </g>
  </g>
  <g id="Group_107" data-name="Group 107" transform="translate(2.904 6.87)">
    <g id="Group_106" data-name="Group 106" transform="translate(0)">
      <path id="Path_59" data-name="Path 59" d="M45.843,51.958H37.651a.441.441,0,1,1,0-.881h8.192a.441.441,0,0,1,0,.881Z" transform="translate(-37.21 -51.077)"/>
    </g>
  </g>
</svg>
