<svg xmlns="http://www.w3.org/2000/svg" width="17.334" height="13.289" viewBox="0 0 17.334 13.289">
  <g id="Group_172" data-name="Group 172" transform="translate(-930 -469)">
    <g id="Component_3_1" data-name="Component 3 – 1" transform="translate(930 469)">
      <g id="Group_161" data-name="Group 161">
        <g id="Group_160" data-name="Group 160">
          <path id="Path_71" data-name="Path 71" d="M-145.924,1360h-15.6a.867.867,0,0,0-.867.867v11.556a.867.867,0,0,0,.867.867h15.6a.867.867,0,0,0,.867-.867v-11.556A.867.867,0,0,0-145.924,1360Zm.289,12.423a.289.289,0,0,1-.289.289h-15.6a.289.289,0,0,1-.289-.289v-11.556a.289.289,0,0,1,.289-.289h15.6a.289.289,0,0,1,.289.289v11.556Z" transform="translate(162.391 -1360)" fill="#7d7d7d"/>
          <path id="Path_72" data-name="Path 72" d="M-142.739,1364.894a.288.288,0,0,0-.211.067l-6.665,5.6a.578.578,0,0,1-.744,0l-6.665-5.6a.289.289,0,0,0-.285-.05.29.29,0,0,0-.186.221.288.288,0,0,0,.1.271l6.665,5.6a1.154,1.154,0,0,0,1.487,0l6.665-5.6a.289.289,0,0,0,.1-.2.288.288,0,0,0-.067-.211A.288.288,0,0,0-142.739,1364.894Z" transform="translate(158.653 -1363.737)" fill="#7d7d7d"/>
          <path id="Path_73" data-name="Path 73" d="M-153.112,1390.566a.288.288,0,0,0-.278.09l-4.045,4.334a.289.289,0,0,0-.07.284.288.288,0,0,0,.214.2.289.289,0,0,0,.278-.09l4.045-4.333a.288.288,0,0,0,.07-.284A.289.289,0,0,0-153.112,1390.566Z" transform="translate(158.668 -1383.342)" fill="#7d7d7d"/>
          <path id="Path_74" data-name="Path 74" d="M-112.978,1390.656a.289.289,0,0,0-.279-.09.289.289,0,0,0-.214.2.289.289,0,0,0,.07.284l4.044,4.333a.289.289,0,0,0,.4.009.289.289,0,0,0,.018-.4Z" transform="translate(125.034 -1383.342)" fill="#7d7d7d"/>
        </g>
      </g>
    </g>
  </g>
</svg>
