<svg id="Group_163" data-name="Group 163" xmlns="http://www.w3.org/2000/svg" width="39.777" height="39.777" viewBox="0 0 39.777 39.777">
  <circle id="Ellipse_12" data-name="Ellipse 12" cx="19.889" cy="19.889" r="19.889" transform="translate(0)" fill="#eb4132"/>
  <path id="Path_76" data-name="Path 76" d="M-676.452,789.066v3.512h5a5.019,5.019,0,0,1-5,3.65A5.544,5.544,0,0,1-682,790.685a5.544,5.544,0,0,1,5.544-5.544,5.518,5.518,0,0,1,3.6,1.335l2.586-2.586a9.161,9.161,0,0,0-6.19-2.4,9.191,9.191,0,0,0-9.192,9.19,9.191,9.191,0,0,0,9.192,9.19c7.716,0,9.419-7.215,8.662-10.8Z" transform="translate(696.524 -770.796)" fill="#fff"/>
</svg>
