<?xml version="1.0" encoding="utf-8"?>
<!-- Generator: Adobe Illustrator 21.0.0, SVG Export Plug-In . SVG Version: 6.00 Build 0)  -->
<svg version="1.1" id="Layer_1" xmlns="http://www.w3.org/2000/svg" xmlns:xlink="http://www.w3.org/1999/xlink" x="0px" y="0px"
	 viewBox="0 0 180.8 162" style="enable-background:new 0 0 180.8 162;" xml:space="preserve">
<style type="text/css">
	.st0{fill:#FFFFFF;}
</style>
<path class="st0" d="M90.4,162c-3.6,0-7.2-1.3-9.9-3.7c-7-6.1-13.8-12-19.4-16.7c-17.4-14.8-32.4-27.6-43.1-40.5
	C5.8,86.3,0,72,0,56.3C0,41,5.3,26.9,14.9,16.5C24.7,5.9,38.1,0,52.7,0c11,0,21.1,3.5,29.9,10.3c2.8,2.1,5.4,4.6,7.8,7.3
	c2.4-2.7,5-5.2,7.8-7.3C107.1,3.5,117.1,0,128.1,0c14.6,0,28,5.9,37.9,16.5v0c9.6,10.4,14.9,24.6,14.9,39.9
	c0,15.7-5.7,29.9-18.1,44.8c-10.6,12.8-25.6,25.6-43,40.4c-5.6,4.7-12.5,10.6-19.4,16.7C97.6,160.7,94.1,162,90.4,162 M52.7,10
	c-11.8,0-22.6,4.7-30.5,13.3C14.3,31.8,10,43.6,10,56.3c0,13.2,5,25.4,15.8,38.4c10.1,12.1,24.8,24.7,41.8,39.2
	c5.6,4.8,12.5,10.6,19.5,16.8c1.8,1.6,4.8,1.6,6.6,0c7-6.1,13.9-12,19.5-16.8c17-14.5,31.7-27.1,41.8-39.2
	c10.8-13,15.8-25.2,15.8-38.4c0-12.8-4.3-24.5-12.2-33.1v0c-7.9-8.6-18.7-13.3-30.5-13.3c-8.7,0-16.7,2.8-23.8,8.2
	c-3.6,2.8-6.9,6.3-9.9,10.3c-0.9,1.3-2.4,2.1-4.1,2.1c-1.6,0-3.1-0.8-4.1-2.1c-2.9-4-6.2-7.5-9.9-10.3C69.5,12.8,61.5,10,52.7,10"/>
<path class="st0" d="M90.4,162c-3.6,0-7.2-1.3-9.9-3.7c-7-6.1-13.8-12-19.4-16.7c-17.4-14.8-32.4-27.6-43.1-40.5
	C5.8,86.3,0,72,0,56.3C0,41,5.3,26.9,14.9,16.5C24.7,5.9,38.1,0,52.7,0c11,0,21.1,3.5,29.9,10.3c2.8,2.1,5.4,4.6,7.8,7.3
	c2.4-2.7,5-5.2,7.8-7.3C107.1,3.5,117.1,0,128.1,0c14.6,0,28,5.9,37.9,16.5v0c9.6,10.4,14.9,24.6,14.9,39.9
	c0,15.7-5.7,29.9-18.1,44.8c-10.6,12.8-25.6,25.6-43,40.4c-5.6,4.7-12.5,10.6-19.4,16.7C97.6,160.7,94.1,162,90.4,162 M52.7,10
	c-11.8,0-22.6,4.7-30.5,13.3C14.3,31.8,10,43.6,10,56.3c0,13.2,5,25.4,15.8,38.4c10.1,12.1,24.8,24.7,41.8,39.2
	c5.6,4.8,12.5,10.6,19.5,16.8c1.8,1.6,4.8,1.6,6.6,0c7-6.1,13.9-12,19.5-16.8c17-14.5,31.7-27.1,41.8-39.2
	c10.8-13,15.8-25.2,15.8-38.4c0-12.8-4.3-24.5-12.2-33.1v0c-7.9-8.6-18.7-13.3-30.5-13.3c-8.7,0-16.7,2.8-23.8,8.2
	c-3.6,2.8-6.9,6.3-9.9,10.3c-0.9,1.3-2.4,2.1-4.1,2.1c-1.6,0-3.1-0.8-4.1-2.1c-2.9-4-6.2-7.5-9.9-10.3C69.5,12.8,61.5,10,52.7,10"/>
</svg>
