<svg xmlns="http://www.w3.org/2000/svg" width="29.756" height="27.571" viewBox="0 0 29.756 27.571">
  <g id="Group_253" data-name="Group 253" transform="translate(-17 -15.463)">
    <g id="Group_248" data-name="Group 248" transform="translate(29.205 19.592)">
      <g id="Group_247" data-name="Group 247" transform="translate(0 0)">
        <path id="Path_97" data-name="Path 97" d="M50.9,25.919a3.272,3.272,0,0,0-2.466-1.02,3.448,3.448,0,0,0-3.525,2.694A2.354,2.354,0,0,0,45.5,29.45a3.244,3.244,0,0,0,2.443,1,3.414,3.414,0,0,0,3.547-2.692A2.331,2.331,0,0,0,50.9,25.919Zm-.825,1.675a2.051,2.051,0,0,1-2.128,1.43,1.854,1.854,0,0,1-1.378-.523.92.92,0,0,1-.242-.741,2.065,2.065,0,0,1,2.107-1.431,1.88,1.88,0,0,1,1.4.54A.917.917,0,0,1,50.074,27.593Z" transform="translate(-44.891 -24.899)" fill="#7d7d7d"/>
      </g>
    </g>
    <g id="Group_250" data-name="Group 250" transform="translate(28.057 25.87)">
      <g id="Group_249" data-name="Group 249">
        <path id="Path_98" data-name="Path 98" d="M48.748,49.22c-.179-.12-.6-.4-.259-2.346.009-.042.042-.2.1-.443.119-.556.343-1.589.585-2.742v-.008a3.848,3.848,0,0,0-.566-3.152,3.377,3.377,0,0,0-2.485-1.272,4.163,4.163,0,0,0-3.656,1.706.883.883,0,0,0-.033.888,1.138,1.138,0,0,0,.377.389c.176.125.587.416.2,2.358-.037.178-.581,2.947-.653,3.34v.008A3.8,3.8,0,0,0,43,51.083a3.545,3.545,0,0,0,2.7,1.211,4.158,4.158,0,0,0,3.424-1.806.884.884,0,0,0,.01-.889A1.133,1.133,0,0,0,48.748,49.22Zm-.978-5.82c-.241,1.147-.463,2.177-.583,2.73-.081.376-.1.453-.1.484v.008c-.363,2.084,0,3,.524,3.507a2.814,2.814,0,0,1-.577.388,2.935,2.935,0,0,1-1.439.347,1.95,1.95,0,0,1-1.477-.671,2.477,2.477,0,0,1-.357-2c.077-.423.623-3.193.646-3.3v-.007c.417-2.074.074-3-.432-3.52a2.828,2.828,0,0,1,.587-.372,2.935,2.935,0,0,1,1.448-.309,1.95,1.95,0,0,1,1.459.71A2.478,2.478,0,0,1,47.771,43.4Z" transform="translate(-42.269 -39.246)" fill="#7d7d7d"/>
      </g>
    </g>
    <g id="Group_252" data-name="Group 252" transform="translate(17 15.463)">
      <g id="Group_251" data-name="Group 251">
        <path id="Path_99" data-name="Path 99" d="M43.711,37.324a12.761,12.761,0,0,0-1.337-17.9,15.879,15.879,0,0,0-20.992,0,12.811,12.811,0,0,0,0,19.295,15.517,15.517,0,0,0,10.5,3.963,15.993,15.993,0,0,0,7.082-1.638l5.185,1.942a.714.714,0,0,0,.937-.865ZM39.167,39.6a.713.713,0,0,0-.581.036,14.538,14.538,0,0,1-6.708,1.622c-7.416,0-13.45-5.465-13.45-12.182s6.033-12.182,13.45-12.182,13.449,5.465,13.449,12.182a11.361,11.361,0,0,1-2.944,7.6.715.715,0,0,0-.151.669l1.088,3.807Z" transform="translate(-17 -15.463)" fill="#7d7d7d"/>
      </g>
    </g>
  </g>
</svg>
