<svg id="Component_5_1" data-name="Component 5 – 1" xmlns="http://www.w3.org/2000/svg" width="12.631" height="16" viewBox="0 0 12.631 16">
  <g id="Group_167" data-name="Group 167">
    <path id="Path_77" data-name="Path 77" d="M782.6,842.934h.1a2.77,2.77,0,0,0,2.14-.95,5.819,5.819,0,0,0,.953-3.891,3.2,3.2,0,0,0-1.472-2.826,3.307,3.307,0,0,0-1.633-.439h-.052a3.312,3.312,0,0,0-1.633.427,3.2,3.2,0,0,0-1.49,2.838,5.819,5.819,0,0,0,.953,3.891A2.759,2.759,0,0,0,782.6,842.934Zm-2.28-4.764c0-.009,0-.019,0-.025.1-2.234,1.646-2.474,2.307-2.474h.036a2.246,2.246,0,0,1,2.307,2.474.061.061,0,0,0,0,.025,5.04,5.04,0,0,1-.75,3.256,1.965,1.965,0,0,1-1.563.667h-.031a1.96,1.96,0,0,1-1.56-.667A5.067,5.067,0,0,1,780.32,838.17Z" transform="translate(-776.337 -834.827)" fill="#7d7d7d"/>
    <path id="Path_78" data-name="Path 78" d="M777.63,875.876v-.009c0-.025,0-.05,0-.078-.018-.617-.058-2.059-1.393-2.52l-.031-.01a8.829,8.829,0,0,1-2.552-1.178.412.412,0,0,0-.578.1.424.424,0,0,0,.1.586,9.523,9.523,0,0,0,2.807,1.3c.717.259.8,1.034.818,1.745a.637.637,0,0,0,0,.078,5.711,5.711,0,0,1-.065.963,12.136,12.136,0,0,1-10.846,0,5.438,5.438,0,0,1-.065-.963c0-.025,0-.05,0-.078.021-.71.1-1.486.818-1.745a9.61,9.61,0,0,0,2.808-1.3.423.423,0,0,0,.1-.586.411.411,0,0,0-.578-.1,8.724,8.724,0,0,1-2.552,1.178l-.031.009c-1.334.464-1.375,1.907-1.393,2.521a.637.637,0,0,1,0,.078v.009a4.836,4.836,0,0,0,.157,1.411.4.4,0,0,0,.16.2,12.842,12.842,0,0,0,12.005,0,.417.417,0,0,0,.16-.2A5.089,5.089,0,0,0,777.63,875.876Z" transform="translate(-765 -862.97)" fill="#7d7d7d"/>
  </g>
</svg>
