<svg id="Component_9_1" data-name="Component 9 – 1" xmlns="http://www.w3.org/2000/svg" width="14.068" height="13.676" viewBox="0 0 14.068 13.676">
  <g id="Group_340" data-name="Group 340">
    <g id="Group_339" data-name="Group 339">
      <path id="Path_124" data-name="Path 124" d="M40.048,44.676a.769.769,0,0,1-.6-.286l-2.287-2.777H31.241a2.52,2.52,0,0,1-2.517-2.517V33.517A2.52,2.52,0,0,1,31.241,31h9.033a2.52,2.52,0,0,1,2.517,2.517v5.578a2.521,2.521,0,0,1-2.077,2.479l.119,2.279a.769.769,0,0,1-.5.768A.8.8,0,0,1,40.048,44.676ZM40,43.9h0ZM31.241,31.839a1.68,1.68,0,0,0-1.678,1.678v5.578a1.68,1.68,0,0,0,1.678,1.678h6.121a.42.42,0,0,1,.324.153l2.3,2.793-.131-2.5a.419.419,0,0,1,.419-.441,1.68,1.68,0,0,0,1.678-1.678V33.517a1.68,1.68,0,0,0-1.678-1.678Z" transform="translate(-28.724 -31)" fill="#7d7d7d"/>
    </g>
  </g>
  <g id="Group_342" data-name="Group 342" transform="translate(2.766 3.85)">
    <g id="Group_341" data-name="Group 341" transform="translate(0 0)">
      <path id="Path_125" data-name="Path 125" d="M45.428,43.658h-7.8a.42.42,0,1,1,0-.839h7.8a.42.42,0,0,1,0,.839Z" transform="translate(-37.21 -42.819)" fill="#7d7d7d"/>
    </g>
  </g>
  <g id="Group_344" data-name="Group 344" transform="translate(2.766 6.54)">
    <g id="Group_343" data-name="Group 343" transform="translate(0 0)">
      <path id="Path_126" data-name="Path 126" d="M45.428,51.916h-7.8a.42.42,0,0,1,0-.839h7.8a.42.42,0,0,1,0,.839Z" transform="translate(-37.21 -51.077)" fill="#7d7d7d"/>
    </g>
  </g>
</svg>
