<svg xmlns="http://www.w3.org/2000/svg" width="23.501" height="23.5" viewBox="0 0 23.501 23.5">
  <g id="Group_255" data-name="Group 255" transform="translate(613.5 352.501)">
    <path id="Path_100" data-name="Path 100" d="M-590.565-334.226l-4.664-3.11a1.362,1.362,0,0,0-1.823.3l-1.358,1.746a.58.58,0,0,1-.744.157l-.258-.142a15.619,15.619,0,0,1-4.07-3.2,15.7,15.7,0,0,1-3.2-4.07l-.142-.258a.582.582,0,0,1,.154-.747l1.745-1.358a1.362,1.362,0,0,0,.3-1.822l-3.11-4.664a1.354,1.354,0,0,0-1.825-.411l-1.95,1.172a2.747,2.747,0,0,0-1.254,1.628c-.7,2.558-.174,6.974,6.331,13.48,5.175,5.174,9.027,6.566,11.674,6.566a6.8,6.8,0,0,0,1.8-.235,2.75,2.75,0,0,0,1.628-1.255l1.172-1.949A1.354,1.354,0,0,0-590.565-334.226Zm-.251,1.432-1.17,1.95a1.985,1.985,0,0,1-1.171.908c-2.362.648-6.489.111-12.734-6.134s-6.782-10.371-6.133-12.734a1.987,1.987,0,0,1,.909-1.172l1.95-1.17a.587.587,0,0,1,.792.178l1.69,2.537,1.418,2.127a.591.591,0,0,1-.128.791l-1.746,1.358a1.344,1.344,0,0,0-.356,1.725l.138.252a16.282,16.282,0,0,0,3.328,4.246,16.309,16.309,0,0,0,4.246,3.328l.252.139a1.344,1.344,0,0,0,1.725-.356l1.358-1.746a.591.591,0,0,1,.791-.129l4.663,3.11A.587.587,0,0,1-590.816-332.794Z" transform="translate(-0.269 -0.27)"/>
    <path id="Path_101" data-name="Path 101" d="M-595-329h-.031c-3.452,0-7.435-2.232-11.837-6.633-6.583-6.584-7.108-11.086-6.39-13.7A2.964,2.964,0,0,1-611.9-351.1l1.949-1.171a1.583,1.583,0,0,1,2.136.481l3.109,4.664a1.6,1.6,0,0,1-.346,2.132l-1.746,1.358a.354.354,0,0,0-.094.453l.143.26a15.48,15.48,0,0,0,3.158,4.018,15.416,15.416,0,0,0,4.017,3.157l.26.143a.354.354,0,0,0,.45-.094l1.36-1.749a1.6,1.6,0,0,1,2.132-.347l4.664,3.111a1.582,1.582,0,0,1,.481,2.137L-591.4-330.6a2.96,2.96,0,0,1-1.763,1.357A7.03,7.03,0,0,1-595-329Zm-14.133-23.039a1.121,1.121,0,0,0-.579.161l-1.95,1.172a2.508,2.508,0,0,0-1.151,1.492c-.686,2.5-.154,6.827,6.272,13.254,4.312,4.312,8.185,6.5,11.511,6.5a6.436,6.436,0,0,0,1.745-.228,2.505,2.505,0,0,0,1.489-1.148l1.174-1.951a1.122,1.122,0,0,0-.34-1.516h0l-4.663-3.11a1.137,1.137,0,0,0-1.514.246l-1.358,1.745a.815.815,0,0,1-1.038.217l-.258-.142a15.825,15.825,0,0,1-4.121-3.235,15.9,15.9,0,0,1-3.236-4.121l-.142-.26a.815.815,0,0,1,.215-1.041l1.744-1.357a1.138,1.138,0,0,0,.246-1.514l-3.109-4.663A1.122,1.122,0,0,0-609.132-352.04Zm14.093,22.274c-2.521,0-6.228-1.355-11.284-6.411-6.323-6.323-6.858-10.536-6.193-12.958a2.208,2.208,0,0,1,1.015-1.31l1.948-1.169a.817.817,0,0,1,1.1.248l3.107,4.663a.827.827,0,0,1-.177,1.1l-1.747,1.359a1.119,1.119,0,0,0-.3,1.43l.14.253a16.083,16.083,0,0,0,3.289,4.195,16.106,16.106,0,0,0,4.193,3.288l.254.14a1.121,1.121,0,0,0,1.431-.294l1.359-1.747a.827.827,0,0,1,1.1-.179l4.664,3.11a.815.815,0,0,1,.247,1.1l-1.17,1.95a2.2,2.2,0,0,1-1.305,1.011A6.31,6.31,0,0,1-595.039-329.767Zm-14.093-21.5a.357.357,0,0,0-.184.051l-1.95,1.17a1.752,1.752,0,0,0-.806,1.038c-.632,2.3-.092,6.342,6.075,12.508s10.2,6.707,12.51,6.074a1.744,1.744,0,0,0,1.033-.8l1.171-1.953a.355.355,0,0,0-.108-.481l-4.664-3.11a.362.362,0,0,0-.482.078l-1.357,1.745a1.581,1.581,0,0,1-2.019.416l-.251-.139a16.5,16.5,0,0,1-4.3-3.366,16.5,16.5,0,0,1-3.367-4.3l-.139-.253a1.581,1.581,0,0,1,.418-2.019l1.744-1.357a.359.359,0,0,0,.077-.482l-3.107-4.662A.356.356,0,0,0-609.132-351.271Z"/>
  </g>
</svg>
