<?xml version="1.0" encoding="utf-8"?>
<!-- Generator: Adobe Illustrator 16.0.0, SVG Export Plug-In . SVG Version: 6.00 Build 0)  -->
<!DOCTYPE svg PUBLIC "-//W3C//DTD SVG 1.1//EN" "http://www.w3.org/Graphics/SVG/1.1/DTD/svg11.dtd">
<svg version="1.1" id="Layer_1" xmlns="http://www.w3.org/2000/svg" xmlns:xlink="http://www.w3.org/1999/xlink" x="0px" y="0px"
	 width="43.261px" height="54.752px" viewBox="0 0 43.261 54.752" enable-background="new 0 0 43.261 54.752" xml:space="preserve">
<path fill="#FFFFFF" d="M39.838,33.379v-8.548c0-8.256-5.338-15.262-12.731-17.599V5.414C27.106,2.429,24.616,0,21.63,0
	c-2.985,0-5.475,2.429-5.475,5.414v1.818C8.762,9.569,3.421,16.575,3.421,24.831v8.548C1.337,34.305-0.004,36.373,0,38.653v2.771
	c0,3.207,2.641,5.807,5.848,5.807h7.385c0.473,4.283,4.089,7.523,8.396,7.523c4.308,0,7.925-3.24,8.396-7.523h7.385
	c3.208,0,5.85-2.6,5.85-5.807v-2.771C43.265,36.373,41.923,34.305,39.838,33.379 M18.893,5.414c0-1.476,1.262-2.676,2.737-2.676
	c1.476,0,2.738,1.2,2.738,2.676v1.188c-1.815-0.266-3.66-0.266-5.476,0V5.414z M21.63,9.141c8.54,0,15.471,7.039,15.471,15.69v8.025
	H6.161v-8.025C6.161,16.18,13.091,9.141,21.63,9.141 M21.63,52.015c-2.798,0.006-5.187-2.022-5.633-4.785h11.268
	C26.817,49.993,24.429,52.021,21.63,52.015 M40.522,41.416c0,1.699-1.378,3.077-3.077,3.077H5.815c-1.699,0-3.077-1.378-3.077-3.077
	v-2.743c0-1.7,1.378-3.077,3.077-3.077h31.63c1.699,0,3.077,1.377,3.077,3.077V41.416z"/>
</svg>
