<svg xmlns="http://www.w3.org/2000/svg" width="17" height="16.999" viewBox="0 0 17 16.999">
  <g id="Group_173" data-name="Group 173" transform="translate(253.5 -128.499)">
    <path id="Path_83" data-name="Path 83" d="M-236.772,141.857l-3.373-2.25a.985.985,0,0,0-1.319.214l-.983,1.263a.419.419,0,0,1-.538.113l-.187-.1a11.3,11.3,0,0,1-2.944-2.312,11.356,11.356,0,0,1-2.312-2.944l-.1-.187a.421.421,0,0,1,.111-.541l1.263-.982a.985.985,0,0,0,.215-1.318l-2.25-3.373a.98.98,0,0,0-1.32-.3l-1.411.848a1.987,1.987,0,0,0-.907,1.178c-.508,1.851-.126,5.045,4.579,9.751,3.743,3.743,6.529,4.749,8.445,4.749a4.92,4.92,0,0,0,1.306-.17,1.989,1.989,0,0,0,1.178-.908l.848-1.41A.98.98,0,0,0-236.772,141.857Zm-.182,1.036-.846,1.411a1.436,1.436,0,0,1-.847.657c-1.709.469-4.694.08-9.211-4.437s-4.906-7.5-4.437-9.211a1.437,1.437,0,0,1,.657-.848l1.411-.846a.425.425,0,0,1,.573.129l1.222,1.835,1.026,1.538a.428.428,0,0,1-.093.572l-1.263.982a.972.972,0,0,0-.257,1.248l.1.182a11.778,11.778,0,0,0,2.407,3.071,11.8,11.8,0,0,0,3.071,2.407l.182.1a.972.972,0,0,0,1.248-.257l.983-1.263a.427.427,0,0,1,.572-.093l3.373,2.25A.425.425,0,0,1-236.954,142.893Z" transform="translate(-0.332 -0.334)" fill="#7d7d7d"/>
    <path id="Path_84" data-name="Path 84" d="M-240.117,145.5h-.023c-2.5,0-5.378-1.615-8.562-4.8-4.762-4.763-5.142-8.019-4.622-9.913a2.144,2.144,0,0,1,.983-1.277l1.41-.847a1.145,1.145,0,0,1,1.545.348l2.249,3.373a1.159,1.159,0,0,1-.25,1.542l-1.263.982a.256.256,0,0,0-.068.328l.1.188a11.2,11.2,0,0,0,2.284,2.906,11.151,11.151,0,0,0,2.905,2.283l.188.1a.256.256,0,0,0,.325-.068l.984-1.265a1.157,1.157,0,0,1,1.542-.251l3.373,2.25a1.145,1.145,0,0,1,.348,1.546l-.848,1.41a2.141,2.141,0,0,1-1.276.982A5.084,5.084,0,0,1-240.117,145.5Zm-10.223-16.665a.81.81,0,0,0-.419.117l-1.411.848a1.814,1.814,0,0,0-.833,1.08c-.5,1.808-.112,4.939,4.537,9.588,3.119,3.119,5.921,4.7,8.327,4.7a4.656,4.656,0,0,0,1.262-.165,1.812,1.812,0,0,0,1.077-.831l.849-1.412a.812.812,0,0,0-.246-1.1h0l-3.373-2.25a.822.822,0,0,0-1.095.178l-.982,1.263a.59.59,0,0,1-.751.157l-.187-.1a11.446,11.446,0,0,1-2.981-2.34,11.5,11.5,0,0,1-2.34-2.981l-.1-.188a.589.589,0,0,1,.156-.753l1.262-.981a.823.823,0,0,0,.178-1.1l-2.249-3.373A.812.812,0,0,0-250.34,128.832Zm10.195,16.112c-1.824,0-4.505-.98-8.162-4.637-4.574-4.574-4.961-7.621-4.48-9.373a1.6,1.6,0,0,1,.734-.948l1.409-.845a.591.591,0,0,1,.8.179l2.247,3.373a.6.6,0,0,1-.128.8l-1.264.983a.809.809,0,0,0-.215,1.034l.1.183a11.631,11.631,0,0,0,2.379,3.034,11.65,11.65,0,0,0,3.033,2.378l.184.1a.811.811,0,0,0,1.035-.213l.983-1.264a.6.6,0,0,1,.8-.129l3.374,2.25a.59.59,0,0,1,.179.8l-.846,1.411a1.594,1.594,0,0,1-.944.731A4.564,4.564,0,0,1-240.146,144.944Zm-10.195-15.555a.258.258,0,0,0-.133.037l-1.411.846a1.267,1.267,0,0,0-.583.751c-.457,1.665-.066,4.587,4.394,9.048s7.382,4.851,9.049,4.394a1.262,1.262,0,0,0,.747-.58l.847-1.413a.257.257,0,0,0-.078-.348l-3.373-2.25a.262.262,0,0,0-.349.057l-.982,1.262a1.144,1.144,0,0,1-1.461.3l-.181-.1a11.944,11.944,0,0,1-3.109-2.435,11.931,11.931,0,0,1-2.435-3.109l-.1-.183a1.144,1.144,0,0,1,.3-1.46l1.262-.981a.26.26,0,0,0,.056-.349l-2.247-3.372A.258.258,0,0,0-250.34,129.389Z" fill="#7d7d7d"/>
  </g>
</svg>
