<svg id="Component_10_1" data-name="Component 10 – 1" xmlns="http://www.w3.org/2000/svg" width="18.336" height="13.752" viewBox="0 0 18.336 13.752">
  <g id="Group_346" data-name="Group 346">
    <path id="Path_127" data-name="Path 127" d="M-591.068,3294.826v-2.68a1.147,1.147,0,0,1,1.146-1.146,1.132,1.132,0,0,1,.771.307l.493.456c1.623,1.5,4.339,4.014,5.729,5.408a.987.987,0,0,1,.264.7.987.987,0,0,1-.264.7c-1.39,1.394-4.106,3.906-5.729,5.408l-.493.456a1.132,1.132,0,0,1-.771.307,1.147,1.147,0,0,1-1.146-1.146v-2.671c-5.5.077-9.168,1.812-9.168,3.436a.382.382,0,0,1-.382.382.382.382,0,0,1-.382-.382C-601,3299.222-596.579,3295.013-591.068,3294.826Zm.382,5.342a.382.382,0,0,1,.382.382v3.056a.382.382,0,0,0,.382.382.371.371,0,0,0,.252-.1l.493-.457c1.619-1.5,4.328-4,5.707-5.386a.262.262,0,0,0,.042-.166.259.259,0,0,0-.042-.166c-1.379-1.383-4.088-3.889-5.707-5.387l-.493-.457a.371.371,0,0,0-.252-.1.382.382,0,0,0-.382.382v3.056a.382.382,0,0,1-.382.382,9.411,9.411,0,0,0-9.347,6.979C-598.4,3301.135-594.873,3300.168-590.686,3300.168Z" transform="translate(601 -3291)" fill="#7d7d7d"/>
  </g>
</svg>
