<svg xmlns="http://www.w3.org/2000/svg" width="32.585" height="32.511" viewBox="0 0 32.585 32.511">
  <path id="Path_107" data-name="Path 107" d="M841.292-3063.372A16.283,16.283,0,0,0,825-3047.117a16.282,16.282,0,0,0,16.292,16.255,16.283,16.283,0,0,0,16.292-16.255A16.283,16.283,0,0,0,841.292-3063.372Zm1.447,16.738a1.069,1.069,0,0,1-.334.78l-4.157,4.157a1.131,1.131,0,0,1-.779.334,1.133,1.133,0,0,1-.779-.334,1.076,1.076,0,0,1,0-1.559l3.823-3.823v-7.9a1.093,1.093,0,0,1,1.113-1.114,1.093,1.093,0,0,1,1.113,1.114Z" transform="translate(-825 3063.372)" fill="#7d7d7d"/>
</svg>
