<svg id="Group_363" data-name="Group 363" xmlns="http://www.w3.org/2000/svg" width="83.328" height="73.786" viewBox="0 0 83.328 73.786">
  <g id="Group_362" data-name="Group 362" transform="translate(0 0)">
    <g id="Group_361" data-name="Group 361" transform="translate(0 0)">
      <circle id="Ellipse_25" data-name="Ellipse 25" cx="5.725" cy="5.725" r="5.725" transform="translate(25.682 18.208)"/>
      <path id="Path_129" data-name="Path 129" d="M-1297.6,564a17.628,17.628,0,0,0-9.859-4.691v-29.1a11.446,11.446,0,0,0-3.26-7.951,11.108,11.108,0,0,0-7.951-3.26h-46.117a11.446,11.446,0,0,0-7.951,3.26,11.108,11.108,0,0,0-3.26,7.951v47.468a11.447,11.447,0,0,0,3.26,7.951,11.11,11.11,0,0,0,7.951,3.26h44.606a16.846,16.846,0,0,0,10.654,3.9,16.82,16.82,0,0,0,11.927-4.93,16.821,16.821,0,0,0,4.93-11.926A16.821,16.821,0,0,0-1297.6,564Zm-74.184-33.792a6.976,6.976,0,0,1,2.067-4.93,6.977,6.977,0,0,1,4.93-2.067h46.117a6.975,6.975,0,0,1,4.929,2.067,6.977,6.977,0,0,1,2.068,4.93v24.807l-11.768-11.688a2.135,2.135,0,0,0-3.021,0l-17.731,17.81-12.006-12.086a2.135,2.135,0,0,0-3.021,0l-12.563,12.722Zm6.917,54.544v-.079a6.976,6.976,0,0,1-4.929-2.067,7.256,7.256,0,0,1-1.988-4.93V567.74l14.153-14.153,12.006,12.007a2.211,2.211,0,0,0,3.021,0l17.731-17.811,11.609,11.688-.716.239a7.4,7.4,0,0,0-1.033.318c-.318.08-.636.239-.954.318a2.387,2.387,0,0,0-.636.318,7.38,7.38,0,0,0-.8.4l-1.193.716c-.238.159-.4.238-.636.4-.159.079-.239.159-.4.238a9.612,9.612,0,0,0-1.909,1.67,16.822,16.822,0,0,0-4.929,11.927,17.469,17.469,0,0,0,.4,3.5c.079.318.159.557.239.875.238.795.477,1.59.8,2.385v.079a14.59,14.59,0,0,0,1.034,1.908Zm64.166.08a12.428,12.428,0,0,1-8.905,3.658,12.544,12.544,0,0,1-8.667-3.5c-.318-.318-.636-.716-.954-1.034-.239-.238-.477-.557-.716-.8a7.542,7.542,0,0,1-.8-1.352c-.159-.318-.318-.557-.477-.875a6.693,6.693,0,0,1-.4-1.352c-.08-.318-.238-.715-.318-1.033a13.156,13.156,0,0,1-.238-2.544,12.762,12.762,0,0,1,3.658-8.905,12.426,12.426,0,0,1,8.905-3.658,12.762,12.762,0,0,1,8.905,3.658,12.292,12.292,0,0,1,3.658,8.905A12.718,12.718,0,0,1-1300.7,584.835Z" transform="translate(1376 -519)"/>
      <path id="Path_130" data-name="Path 130" d="M-1215.75,646.456h-4.85v-4.85a2.138,2.138,0,0,0-2.147-2.147,2.138,2.138,0,0,0-2.147,2.147v4.85h-4.85a2.138,2.138,0,0,0-2.147,2.147,2.138,2.138,0,0,0,2.147,2.147h4.85V655.6a2.138,2.138,0,0,0,2.147,2.147,2.138,2.138,0,0,0,2.147-2.147v-4.851h4.85a2.138,2.138,0,0,0,2.147-2.147A2.138,2.138,0,0,0-1215.75,646.456Z" transform="translate(1289.059 -591.673)"/>
    </g>
  </g>
</svg>
