<svg id="Component_4_1" data-name="Component 4 – 1" xmlns="http://www.w3.org/2000/svg" width="11.359" height="16" viewBox="0 0 11.359 16">
  <path id="Path_79" data-name="Path 79" d="M744.29-60.989v-2.254a3.746,3.746,0,0,0-1.87-3.254,3.747,3.747,0,0,0-3.752,0,3.747,3.747,0,0,0-1.87,3.254v2.335q-.113.1-.222.21a5.679,5.679,0,0,0-.006,8.031,5.679,5.679,0,0,0,8.031.008,5.679,5.679,0,0,0,.01-8.031Q744.456-60.847,744.29-60.989Zm-6.836-2.254a3.091,3.091,0,0,1,3.091-3.091,3.09,3.09,0,0,1,3.091,3.091v1.767a5.7,5.7,0,0,0-6.181.06Zm6.693,10.117a5.03,5.03,0,0,1-6.352.636,5.03,5.03,0,0,1-1.86-6.107,5.031,5.031,0,0,1,5.629-3.014,5.031,5.031,0,0,1,4.051,4.934A4.99,4.99,0,0,1,744.147-53.126Z" transform="translate(-734.91 67)" fill="#7d7d7d"/>
  <path id="Path_80" data-name="Path 80" d="M753.072-31.9a1.37,1.37,0,0,0-1.355,1.168,1.37,1.37,0,0,0,.957,1.512v1.12a.4.4,0,0,0,.4.4.4.4,0,0,0,.4-.4v-1.12a1.369,1.369,0,0,0,.956-1.512A1.37,1.37,0,0,0,753.072-31.9Zm0,1.943a.572.572,0,0,1-.572-.572.573.573,0,0,1,.572-.572.573.573,0,0,1,.573.572A.573.573,0,0,1,753.072-29.96Z" transform="translate(-747.393 40.853)" fill="#7d7d7d"/>
</svg>
